<svg xmlns="http://www.w3.org/2000/svg" width="226" height="296" viewBox="0 0 226 296" fill="none"><path d="M220.115 175.854C216.434 166.656 211.649 159.298 205.76 153.044C199.87 146.79 193.245 141.639 185.515 137.961C177.785 133.914 170.055 130.971 162.325 128.763C154.596 126.556 147.234 124.716 139.872 123.245C132.879 121.773 126.621 120.669 121.1 119.198C114.106 117.358 106.745 115.519 99.0149 113.679C91.2851 111.84 84.2915 109.633 78.034 107.057C71.7766 104.482 66.6234 101.171 62.5745 97.1242C58.5255 93.0774 56.317 88.2947 56.317 82.7763C56.317 76.89 57.7894 72.1074 61.1021 68.4284C64.783 64.3816 68.8319 60.7026 73.9851 58.1273C79.1383 55.5521 85.0277 53.7126 90.5489 52.6089C96.4383 51.1373 101.591 50.7695 106.009 50.7695C108.217 50.7695 110.057 50.7695 112.266 51.1374V0C110.794 0 109.689 0 108.217 0C96.4383 0 84.2915 1.47157 71.7766 4.04684C59.2617 6.6221 47.851 11.0368 37.5447 17.6589C27.2383 23.9131 19.1405 32.7426 12.5149 43.7795C5.88939 54.8163 2.57658 68.4284 2.57658 85.3516C2.57658 96.7563 4.41704 106.689 7.72981 115.519C11.4107 123.981 16.5639 130.971 22.4532 137.225C28.7107 143.111 35.3362 148.262 43.0659 152.308C50.7957 156.355 58.5255 159.298 66.2553 162.242C73.9851 164.449 81.7149 166.656 89.0766 168.128C96.4383 169.599 102.696 170.703 108.585 171.807C117.051 173.278 124.781 175.118 132.511 176.957C140.24 178.797 147.234 181.004 152.755 183.579C158.645 186.155 163.062 189.466 166.374 193.881C170.055 197.927 171.528 202.71 171.528 208.228C171.528 212.643 170.423 217.058 168.215 221.84C166.006 226.255 162.694 230.302 157.909 233.981C153.492 237.292 147.602 240.235 141.345 242.443C134.719 244.65 126.989 245.386 118.523 245.386C102.328 245.386 86.8681 241.707 71.7766 234.717C57.0532 227.359 42.6979 218.897 28.7106 208.964L0 252.744C8.46596 258.998 16.9319 264.884 25.0298 270.035C33.1277 275.185 41.5936 279.968 50.7957 283.647C59.9979 287.326 69.9362 290.269 80.9787 292.108C92.0213 294.316 104.904 295.787 119.26 295.787C135.087 295.787 149.442 293.948 162.325 290.269C175.208 286.59 186.251 281.439 195.821 274.082C205.023 266.724 212.385 257.526 217.538 246.857C222.691 235.821 225.268 222.944 225.268 208.228C226.004 195.352 224.164 184.683 220.115 175.854Z" fill="#333333"></path></svg>